<?xml version="1.0" encoding="utf-8"?>
<!-- Generator: Adobe Illustrator 24.1.2, SVG Export Plug-In . SVG Version: 6.00 Build 0)  -->
<svg version="1.1" id="Layer_1" xmlns="http://www.w3.org/2000/svg" xmlns:xlink="http://www.w3.org/1999/xlink" x="0px" y="0px"
	 viewBox="0 0 1366 768" style="enable-background:new 0 0 1366 768;" xml:space="preserve">
<style type="text/css">
	.st0{fill:#FDFBFB;}
	.st1{fill:#CF181B;}
	.st2{fill:#CF1A1D;}
	.st3{fill:#CE1C1E;}
	.st4{fill:#D02F31;}
	.st5{fill:#CF3537;}
</style>
<g>
	<g>
		<path class="st0" d="M721,421c-24.95,0-49.96,0-75,0c0-24.98,0-49.95,0-75c24.95,0,49.91,0,75,0C721,370.95,721,395.98,721,421z
			 M695.55,381.48c1.21-2.59,1.91-4.36,2.84-6.02c1.77-3.19,5.41-4.89,8.43-3.91c3.56,1.15,4.88,3.74,4.8,7.42
			c-0.2,9.84-9.78,19.86-19.98,20.72c-12.4,1.04-22.85-6.32-24.66-18.04c-0.86-5.57-0.56-11.34-0.61-17.02
			c-0.03-3.63-1.57-6.76-4.73-7.71c-3.75-1.14-7.92-1.08-11.91-1.11c-0.74,0-2.16,2.13-2.05,3.15c0.11,1,1.64,2.29,2.78,2.61
			c1.61,0.45,3.44,0.09,5.17,0.12c3.69,0.07,4.83,1.27,4.75,4.99c-0.04,2.1-0.15,4.2-0.21,6.3c-0.31,10.05,1.75,19.25,9.93,25.99
			c1.33,1.09,3.45,1.18,5.15,1.88c2.27,0.93,4.52,1.96,6.71,3.06c0.58,0.29,0.84,1.26,1.42,1.53c4.02,1.84,10.68,0.4,13.96-2.54
			c1.19-1.07,3.13-2.13,4.57-1.94c3.37,0.44,5.64-1.12,7.25-3.43c2.72-3.9,5.76-7.88,7.23-12.3c1.87-5.64,2.39-11.85-2.55-16.69
			c-4.81-4.71-10.68-4.52-18.4,0.36c-0.85-0.57-1.74-1.21-2.67-1.78c-7.46-4.54-17.52-0.51-19.2,7.68
			c-2.01,9.82,5.67,20.08,15.7,20.9c0.71,0.06,1.45-0.3,3.25-0.7c-1.92-1.16-2.93-1.75-3.91-2.36c-4.38-2.71-7.51-6.34-8.81-11.45
			c-1.07-4.21,0.63-8.27,4.18-9.57c3.39-1.23,7.13,0.61,9.06,4.5C693.79,377.59,694.45,379.11,695.55,381.48z M675.33,411.86
			c0.56,0,1.13,0,1.69-0.01c0.93-1.45,2.75-3.04,2.56-4.33c-0.21-1.4-2.36-3.57-3.54-3.49c-1.35,0.09-3.42,2.18-3.58,3.58
			C672.31,408.91,674.29,410.44,675.33,411.86z M701.45,411.88c0.59,0,1.17,0,1.76,0c1-1.44,2.93-3,2.76-4.28
			c-0.18-1.41-2.25-3.46-3.6-3.55c-1.16-0.07-3.28,2.12-3.48,3.52C698.72,408.85,700.52,410.43,701.45,411.88z M663.92,398.75
			c-2.25-4.05-7.33-4.9-11.53-2.15C656.23,397.31,660.07,398.03,663.92,398.75z M660.4,393.27c-1.62-4.33-6.22-5.34-11.88-2.57
			C652.91,391.65,656.34,392.39,660.4,393.27z"/>
		<path class="st1" d="M695.55,381.48c-1.1-2.38-1.77-3.89-2.5-5.37c-1.93-3.89-5.68-5.73-9.06-4.5c-3.55,1.29-5.25,5.35-4.18,9.57
			c1.3,5.11,4.43,8.74,8.81,11.45c0.99,0.61,1.99,1.2,3.91,2.36c-1.8,0.41-2.54,0.76-3.25,0.7c-10.03-0.82-17.72-11.08-15.7-20.9
			c1.68-8.19,11.74-12.22,19.2-7.68c0.93,0.57,1.82,1.21,2.67,1.78c7.72-4.89,13.59-5.07,18.4-0.36c4.94,4.84,4.43,11.04,2.55,16.69
			c-1.47,4.42-4.5,8.39-7.23,12.3c-1.61,2.3-3.88,3.87-7.25,3.43c-1.44-0.19-3.38,0.87-4.57,1.94c-3.28,2.94-9.95,4.38-13.96,2.54
			c-0.58-0.27-0.84-1.23-1.42-1.53c-2.2-1.11-4.44-2.13-6.71-3.06c-1.7-0.7-3.82-0.79-5.15-1.88c-8.18-6.74-10.24-15.94-9.93-25.99
			c0.06-2.1,0.17-4.2,0.21-6.3c0.08-3.72-1.06-4.92-4.75-4.99c-1.73-0.03-3.56,0.32-5.17-0.12c-1.14-0.32-2.67-1.61-2.78-2.61
			c-0.11-1.01,1.31-3.15,2.05-3.15c3.99,0.03,8.16-0.03,11.91,1.11c3.16,0.96,4.7,4.08,4.73,7.71c0.04,5.68-0.25,11.44,0.61,17.02
			c1.81,11.72,12.26,19.08,24.66,18.04c10.2-0.86,19.78-10.88,19.98-20.72c0.07-3.68-1.24-6.27-4.8-7.42
			c-3.03-0.98-6.66,0.72-8.43,3.91C697.47,377.12,696.76,378.9,695.55,381.48z"/>
		<path class="st2" d="M675.33,411.86c-1.04-1.42-3.02-2.95-2.87-4.24c0.16-1.4,2.23-3.49,3.58-3.58c1.18-0.08,3.32,2.09,3.54,3.49
			c0.2,1.28-1.63,2.87-2.56,4.33C676.46,411.86,675.9,411.86,675.33,411.86z"/>
		<path class="st3" d="M701.45,411.88c-0.93-1.45-2.74-3.02-2.56-4.32c0.2-1.4,2.32-3.59,3.48-3.52c1.35,0.09,3.41,2.14,3.6,3.55
			c0.17,1.29-1.76,2.84-2.76,4.28C702.63,411.88,702.04,411.88,701.45,411.88z"/>
		<path class="st4" d="M663.92,398.75c-3.84-0.72-7.68-1.44-11.53-2.15C656.59,393.85,661.66,394.7,663.92,398.75z"/>
		<path class="st5" d="M660.4,393.27c-4.06-0.88-7.49-1.62-11.88-2.57C654.17,387.93,658.78,388.93,660.4,393.27z"/>
	</g>
</g>
</svg>
